PathFileType	4	(X/Y/Z)	./trials/Ivanov/data/jump_js_1.trc
DataRate	CameraRate	NumFrames	NumMarkers	Units	OrigDataRate	OrigDataStartFrame	OrigNumFrames
400	400	4	71	mm	400	274	364
Frame#	Time	r_illiac			r_troch			r_asis			l_illiac			l_troch			l_asis			r_psis			sacrum			l_psis			r_thigh1			r_thigh2			r_thigh3			r_thigh4			rl_knee			rm_knee			r_shank1			r_shank2			r_shank3			r_shank4			r_heel			rl_ankle			rm_ankle			r_metatarsal5			r_metatarsal1			l_thigh1			l_thigh2			l_thigh3			l_thigh4			ll_knee			lm_knee			l_shank1			l_shank2			l_shank3			l_shank4			l_heel			ll_ankle			lm_ankle			l_metatarsal5			l_metatarsal1			back_down			neck			back_right			back_left			head_up			head_front			head_left			head_right			r_shoulder			r_humerus1			r_humerus2			r_humerus3			rl_elbow			rm_elbow			r_radius1			r_radius2			r_radius3			rl_wrist			rm_wrist			r_hand			l_shoulder			l_humerus1			l_humerus2			l_humerus3			ll_elbow			lm_elbow			l_radius1			l_radius2			l_radius3			ll_wrist			lm_wrist			l_hand		
		X1	Y1	Z1	X2	Y2	Z2	X3	Y3	Z3	X4	Y4	Z4	X5	Y5	Z5	X6	Y6	Z6	X7	Y7	Z7	X8	Y8	Z8	X9	Y9	Z9	X10	Y10	Z10	X11	Y11	Z11	X12	Y12	Z12	X13	Y13	Z13	X14	Y14	Z14	X15	Y15	Z15	X16	Y16	Z16	X17	Y17	Z17	X18	Y18	Z18	X19	Y19	Z19	X20	Y20	Z20	X21	Y21	Z21	X22	Y22	Z22	X23	Y23	Z23	X24	Y24	Z24	X25	Y25	Z25	X26	Y26	Z26	X27	Y27	Z27	X28	Y28	Z28	X29	Y29	Z29	X30	Y30	Z30	X31	Y31	Z31	X32	Y32	Z32	X33	Y33	Z33	X34	Y34	Z34	X35	Y35	Z35	X36	Y36	Z36	X37	Y37	Z37	X38	Y38	Z38	X39	Y39	Z39	X40	Y40	Z40	X41	Y41	Z41	X42	Y42	Z42	X43	Y43	Z43	X44	Y44	Z44	X45	Y45	Z45	X46	Y46	Z46	X47	Y47	Z47	X48	Y48	Z48	X49	Y49	Z49	X50	Y50	Z50	X51	Y51	Z51	X52	Y52	Z52	X53	Y53	Z53	X54	Y54	Z54	X55	Y55	Z55	X56	Y56	Z56	X57	Y57	Z57	X58	Y58	Z58	X59	Y59	Z59	X60	Y60	Z60	X61	Y61	Z61	X62	Y62	Z62	X63	Y63	Z63	X64	Y64	Z64	X65	Y65	Z65	X66	Y66	Z66	X67	Y67	Z67	X68	Y68	Z68	X69	Y69	Z69	X70	Y70	Z70	X71	Y71	Z71
274	0.6825	-222.389	1440.607	533.774	-256.948	1256.575	551.235	-138.357	1390.804	499.226	-227.928	1433.846	206.852	-254.947	1272.366	195.330	-157.808	1374.922	232.946	-331.381	1401.501	428.982	-333.931	1428.770	370.652	-339.980	1397.372	320.994	-270.549	1132.766	545.966	-201.124	1146.717	575.684	-189.235	1022.247	581.195	-249.043	1010.572	552.617	-189.773	845.907	558.243	-163.928	824.962	427.071	-274.381	723.117	548.239	-204.880	717.392	565.607	-222.950	607.994	562.136	-280.947	617.957	545.526	-305.826	445.097	481.922	-279.588	434.687	537.148	-218.825	424.718	458.782	-188.010	269.399	578.705	-151.277	275.068	492.456	-283.582	1107.972	205.199	-209.962	1113.502	182.411	-206.260	990.351	182.500	-264.504	982.589	199.451	-254.365	836.547	206.259	-216.210	791.312	326.408	-319.958	689.999	206.393	-241.335	686.875	215.251	-257.310	579.254	216.018	-318.527	581.189	212.106	-366.678	427.942	263.619	-314.648	412.827	223.480	-274.678	416.037	315.627	-229.156	248.937	228.268	-201.754	265.923	302.433	-298.891	1580.947	375.003	-217.480	1904.601	383.275	-278.299	1755.347	470.713	-273.976	1756.081	294.598	-44.453	2122.299	386.665	62.295	2010.707	371.590	-47.940	2016.413	283.783	-33.326	2023.048	479.828	-110.089	1895.585	555.780	-104.843	1710.224	646.408	-179.309	1798.940	708.566	-170.284	1696.001	727.969	-188.324	1636.699	759.509	-278.170	1634.771	698.196	-164.513	1560.524	645.922	-197.495	1519.685	766.967	-183.691	1467.167	677.027	-239.440	1433.565	583.761	-174.849	1394.260	640.202	-164.603	1402.040	579.608	-99.644	1923.268	230.522	-81.034	1726.237	149.299	-136.796	1794.496	52.429	-132.040	1692.610	64.174	-161.596	1621.315	12.565	-258.353	1645.666	62.664	-212.482	1584.948	129.100	-140.570	1535.616	43.249	-203.092	1484.754	106.338	-251.492	1417.681	166.261	-235.094	1363.544	94.377	-204.610	1379.091	141.903
275	0.6850	-222.067	1444.316	533.773	-256.462	1260.318	551.058	-138.518	1394.896	499.531	-227.590	1437.669	206.599	-254.769	1276.456	195.436	-157.635	1379.103	232.677	-331.444	1405.083	428.893	-333.721	1432.391	370.462	-339.930	1400.908	320.964	-270.329	1136.656	545.584	-201.027	1150.599	575.553	-189.111	1026.063	580.993	-248.763	1014.354	552.357	-189.229	849.854	558.163	-162.765	828.991	427.094	-273.606	727.080	547.773	-204.182	721.517	565.440	-222.088	611.882	561.897	-279.937	621.925	545.119	-304.361	448.708	481.121	-278.313	438.605	536.571	-217.133	428.605	458.595	-186.324	273.794	579.193	-149.054	279.148	493.137	-283.246	1112.159	205.026	-209.682	1117.583	182.358	-205.944	994.362	182.326	-264.132	986.566	199.491	-253.896	840.546	206.295	-215.669	795.550	326.551	-319.178	694.095	206.367	-240.551	691.014	215.466	-256.497	583.391	216.320	-317.618	585.177	212.187	-365.932	431.677	264.404	-314.017	416.925	223.905	-273.682	420.187	315.994	-227.978	253.274	228.141	-200.336	270.212	302.282	-298.893	1585.059	374.968	-217.446	1908.596	383.390	-278.293	1759.869	470.574	-273.995	1760.344	294.764	-42.521	2125.623	386.498	63.058	2012.991	371.546	-47.211	2019.790	283.761	-32.495	2026.551	479.789	-109.758	1899.214	555.977	-104.664	1713.557	646.095	-178.083	1802.557	709.098	-169.647	1699.461	728.030	-187.983	1640.357	759.680	-278.572	1638.935	698.487	-164.767	1564.315	646.180	-197.488	1523.426	767.254	-184.006	1470.806	677.244	-239.806	1437.393	583.915	-175.392	1397.882	640.574	-165.098	1406.106	579.840	-99.498	1926.918	230.387	-81.061	1729.723	149.628	-136.125	1798.114	52.447	-131.857	1696.306	64.431	-161.616	1625.069	12.606	-258.431	1649.770	62.564	-212.850	1588.860	129.049	-140.736	1539.443	43.414	-203.460	1488.644	106.472	-251.742	1421.669	166.234	-235.520	1367.505	94.355	-204.921	1383.139	141.837
276	0.6875	-221.398	1447.930	533.954	-256.057	1264.165	550.857	-138.744	1398.968	499.887	-227.239	1441.391	206.280	-254.754	1280.594	195.550	-157.447	1383.192	232.455	-331.452	1408.741	428.793	-333.678	1436.266	370.377	-339.837	1404.518	320.839	-270.094	1140.423	545.174	-200.976	1154.499	575.449	-189.020	1029.924	580.981	-248.477	1018.260	552.096	-188.986	853.784	557.914	-161.475	833.017	427.183	-272.869	730.949	547.251	-203.565	725.607	565.266	-221.238	615.969	561.697	-279.062	625.739	544.644	-302.816	451.939	480.240	-277.002	442.263	535.937	-215.138	432.353	458.537	-184.555	278.294	579.766	-146.597	283.530	493.928	-282.956	1115.923	204.865	-209.231	1121.407	182.239	-205.521	998.232	182.359	-263.981	990.885	199.081	-253.463	844.582	206.296	-215.147	799.664	326.651	-318.428	698.042	206.400	-239.834	695.070	215.667	-255.707	587.490	216.594	-316.844	589.183	212.394	-365.004	435.428	265.226	-313.209	420.813	224.336	-272.468	424.126	316.295	-226.574	257.629	227.892	-198.688	274.441	301.908	-299.010	1589.105	374.954	-217.257	1912.512	383.492	-278.289	1764.184	470.446	-273.990	1764.381	294.861	-40.559	2129.138	386.332	63.762	2015.406	371.472	-46.444	2023.065	283.750	-31.559	2029.933	479.762	-109.346	1902.642	556.340	-104.528	1716.807	645.853	-176.964	1806.032	709.548	-169.100	1702.846	728.117	-187.716	1643.947	759.963	-278.003	1642.733	699.304	-164.864	1567.855	646.526	-197.535	1527.110	767.577	-184.292	1474.484	677.532	-240.124	1441.278	584.159	-175.984	1401.556	640.993	-165.549	1410.080	580.149	-99.319	1930.460	230.250	-81.139	1733.314	149.944	-135.618	1801.627	52.418	-131.885	1699.808	64.628	-161.641	1628.725	12.590	-258.563	1653.698	62.390	-213.278	1592.652	128.984	-140.961	1543.292	43.591	-203.756	1492.456	106.531	-252.120	1425.577	166.218	-235.807	1371.380	94.296	-205.219	1387.028	141.723
277	0.6900	-220.787	1451.611	534.026	-255.577	1267.825	550.621	-138.978	1402.868	500.262	-226.730	1445.115	206.024	-254.753	1284.802	195.683	-157.206	1387.229	232.260	-331.281	1412.389	428.699	-333.647	1440.120	370.260	-339.804	1408.205	320.696	-269.966	1144.221	544.773	-200.945	1158.271	575.365	-188.912	1033.793	580.793	-248.378	1021.749	552.302	-188.704	857.624	557.820	-160.222	837.023	427.241	-272.202	734.692	546.672	-202.994	729.465	565.066	-220.416	619.804	561.487	-278.149	629.375	544.098	-301.083	455.257	479.405	-275.599	445.974	535.329	-213.145	436.141	458.435	-182.548	282.540	580.315	-144.019	287.743	494.810	-282.634	1119.893	205.094	-209.036	1125.507	181.741	-205.380	1002.339	181.875	-263.500	994.547	199.382	-253.087	848.472	206.266	-214.528	803.845	326.658	-317.793	701.813	206.537	-239.258	699.075	215.774	-254.948	591.419	216.800	-316.120	593.100	212.615	-364.012	438.938	266.102	-312.384	424.768	224.827	-271.052	427.980	316.597	-225.061	261.950	227.516	-196.728	278.643	301.342	-299.033	1593.063	374.977	-217.084	1916.280	383.637	-278.183	1768.482	470.371	-273.911	1768.263	294.869	-38.707	2132.535	386.202	64.467	2017.730	371.389	-45.672	2026.296	283.748	-30.667	2033.155	479.699	-108.923	1906.025	556.739	-104.377	1719.880	645.671	-175.951	1809.575	709.980	-168.634	1706.265	728.320	-187.501	1647.508	760.317	-277.983	1646.564	699.917	-164.986	1571.471	646.955	-197.632	1530.736	767.931	-184.564	1478.179	677.866	-240.461	1445.089	584.446	-176.434	1405.304	641.434	-165.959	1413.963	580.450	-99.178	1933.940	230.076	-81.200	1736.748	150.174	-135.195	1805.134	52.417	-131.793	1703.329	64.842	-161.763	1632.389	12.573	-258.689	1657.546	62.215	-213.742	1596.411	128.829	-141.139	1547.053	43.715	-204.005	1496.417	106.630	-252.324	1429.350	166.126	-236.088	1375.105	94.243	-205.422	1390.827	141.632
